<svg width="61" height="61" viewBox="0 0 61 61" fill="none" xmlns="http://www.w3.org/2000/svg">
<path d="M54.615 44.176C47.208 54.043 31.392 50.713 21.249 51.19C21.249 51.19 19.452 51.292 17.646 51.589C17.646 51.589 18.33 51.298 19.203 50.995C26.325 48.532 29.691 48.037 34.02 45.814C42.15 41.65 50.244 32.575 51.891 23.149C48.795 32.215 39.381 40.018 30.81 43.186C24.945 45.352 14.334 47.458 14.331 47.458C14.1868 47.3842 14.0438 47.3082 13.902 47.23C6.687 43.72 6.477 28.09 19.584 23.053C25.332 20.845 30.825 22.057 37.038 20.578C43.662 19.003 51.336 14.038 54.453 7.54597C57.948 17.92 62.148 34.144 54.615 44.176ZM54.741 4.33597C53.903 6.34521 52.8306 8.2484 51.546 10.006C48.7535 7.1279 45.4115 4.84002 41.7181 3.27803C38.0246 1.71605 34.0551 0.911789 30.045 0.912965C13.476 0.912965 3.28287e-06 14.389 3.28287e-06 30.955C-0.00193143 35.0872 0.8513 39.1752 2.50603 42.9617C4.16075 46.7482 6.58116 50.1513 9.615 52.957L10.275 53.539C9.79394 53.0571 9.52393 52.4039 9.52435 51.723C9.52477 51.0421 9.79559 50.3893 10.2773 49.908C10.7589 49.4268 11.412 49.1565 12.0929 49.1566C12.7738 49.1568 13.4267 49.4273 13.9082 49.9088C14.3897 50.3902 14.6602 51.0432 14.6604 51.7241C14.6605 52.405 14.3902 53.0581 13.909 53.5397C13.4277 54.0214 12.7748 54.2922 12.0939 54.2926C11.4131 54.293 10.7599 54.023 10.278 53.542L10.725 53.938C16.1262 58.5044 22.9722 61.0068 30.045 61C45.879 61 58.884 48.676 59.997 33.124C60.819 25.507 58.569 15.835 54.741 4.33597Z" fill="#ACFFCC"/>
</svg>
